<?xml version="1.0" encoding="UTF-8"?>
<!DOCTYPE svg PUBLIC "-//W3C//DTD SVG 1.1//EN" "http://www.w3.org/Graphics/SVG/1.1/DTD/svg11.dtd">
<svg xmlns="http://www.w3.org/2000/svg" version="1.1" width="729px" height="124px" style="shape-rendering:geometricPrecision; text-rendering:geometricPrecision; image-rendering:optimizeQuality; fill-rule:evenodd; clip-rule:evenodd" xmlns:xlink="http://www.w3.org/1999/xlink">
<g><path style="opacity:0.506" fill="#8d7141" d="M 220.5,-0.5 C 221.5,-0.5 222.5,-0.5 223.5,-0.5C 223.5,40.8333 223.5,82.1667 223.5,123.5C 222.5,123.5 221.5,123.5 220.5,123.5C 220.5,82.1667 220.5,40.8333 220.5,-0.5 Z"/></g>
<g><path style="opacity:0.778" fill="#fefffe" d="M 261.5,7.5 C 263.199,7.33982 264.866,7.50649 266.5,8C 270.879,13.9236 275.379,19.7569 280,25.5C 280.499,19.5092 280.666,13.5092 280.5,7.5C 282.167,7.5 283.833,7.5 285.5,7.5C 285.5,17.5 285.5,27.5 285.5,37.5C 283.533,37.7394 281.699,37.4061 280,36.5C 275.667,30.5 271.333,24.5 267,18.5C 266.5,24.8246 266.334,31.1579 266.5,37.5C 264.833,37.5 263.167,37.5 261.5,37.5C 261.5,27.5 261.5,17.5 261.5,7.5 Z"/></g>
<g><path style="opacity:0.734" fill="#fefffe" d="M 340.5,7.5 C 357.434,5.27024 364.268,12.6036 361,29.5C 356.652,37.1084 350.152,39.6084 341.5,37C 336.901,35.4019 334.068,32.2353 333,27.5C 331.097,19.0261 333.597,12.3595 340.5,7.5 Z M 344.5,12.5 C 355.262,12.8557 358.595,18.1891 354.5,28.5C 348.604,34.073 343.437,33.4064 339,26.5C 337.29,20.2761 339.123,15.6094 344.5,12.5 Z"/></g>
<g><path style="opacity:0.746" fill="#fefffe" d="M 409.5,7.5 C 411.167,7.5 412.833,7.5 414.5,7.5C 414.109,14.9209 414.609,22.2542 416,29.5C 419.846,33.1353 423.513,32.802 427,28.5C 427.5,21.5079 427.666,14.5079 427.5,7.5C 429.5,7.5 431.5,7.5 433.5,7.5C 433.666,14.8409 433.5,22.1742 433,29.5C 431.125,35.3774 427.125,38.044 421,37.5C 415.875,38.1051 412.208,36.1051 410,31.5C 409.788,28.2423 409.288,25.0757 408.5,22C 409.201,17.0937 409.534,12.2604 409.5,7.5 Z"/></g>
<g><path style="opacity:0.699" fill="#fefffe" d="M 480.5,7.5 C 482.792,7.24358 484.959,7.57692 487,8.5C 489.222,15.1021 491.889,21.4355 495,27.5C 497.5,21.1667 500,14.8333 502.5,8.5C 504.396,7.53443 506.396,7.2011 508.5,7.5C 508.66,9.19919 508.494,10.8659 508,12.5C 504.282,20.3151 500.949,28.3151 498,36.5C 495.959,37.4231 493.792,37.7564 491.5,37.5C 487.833,27.5 484.167,17.5 480.5,7.5 Z"/></g>
<g><path style="opacity:0.689" fill="#fefffe" d="M 559.5,7.5 C 566.167,7.5 572.833,7.5 579.5,7.5C 579.5,9.16667 579.5,10.8333 579.5,12.5C 574.833,12.5 570.167,12.5 565.5,12.5C 565.5,14.8333 565.5,17.1667 565.5,19.5C 569.167,19.5 572.833,19.5 576.5,19.5C 576.739,21.4672 576.406,23.3005 575.5,25C 572.183,25.4983 568.85,25.665 565.5,25.5C 565.5,27.8333 565.5,30.1667 565.5,32.5C 570.167,32.5 574.833,32.5 579.5,32.5C 579.5,34.1667 579.5,35.8333 579.5,37.5C 572.833,37.5 566.167,37.5 559.5,37.5C 559.5,27.5 559.5,17.5 559.5,7.5 Z"/></g>
<g><path style="opacity:0.729" fill="#fefffe" d="M 639.5,7.5 C 641.5,7.5 643.5,7.5 645.5,7.5C 649.472,17.3876 653.139,27.3876 656.5,37.5C 654.396,37.7989 652.396,37.4656 650.5,36.5C 649.399,34.3584 648.399,32.1917 647.5,30C 643.848,29.5014 640.182,29.3347 636.5,29.5C 636.202,32.2646 635.202,34.7646 633.5,37C 631.272,37.8201 629.272,37.4868 627.5,36C 631.601,26.5287 635.601,17.0287 639.5,7.5 Z M 641.5,16.5 C 643.625,19.0878 644.958,22.0878 645.5,25.5C 643.143,25.6633 640.81,25.4966 638.5,25C 639.929,22.3103 640.929,19.4769 641.5,16.5 Z"/></g>
<g><path style="opacity:0.716" fill="#fefffe" d="M 728.5,7.5 C 728.5,14.8333 728.5,22.1667 728.5,29.5C 724.832,37.0751 718.832,39.5751 710.5,37C 707.272,35.4371 705.105,32.9371 704,29.5C 703.333,22.5 703.333,15.5 704,8.5C 705.699,7.59391 707.533,7.26057 709.5,7.5C 709.109,14.9209 709.609,22.2542 711,29.5C 713.419,32.6376 716.253,33.1376 719.5,31C 720.893,29.8289 721.727,28.3289 722,26.5C 722.5,20.1754 722.666,13.8421 722.5,7.5C 724.5,7.5 726.5,7.5 728.5,7.5 Z"/></g>
<g><path style="opacity:0.958" fill="#a67c34" d="M -0.5,12.5 C 3.18174,12.3347 6.84841,12.5014 10.5,13C 30.3685,36.8783 49.5352,61.3783 68,86.5C 68.5,61.8356 68.6666,37.1689 68.5,12.5C 73.1667,12.5 77.8333,12.5 82.5,12.5C 82.5,46.5 82.5,80.5 82.5,114.5C 78.4862,114.666 74.4862,114.499 70.5,114C 51.5459,89.9239 32.7126,65.7572 14,41.5C 13.5,65.8311 13.3334,90.1644 13.5,114.5C 8.83333,114.5 4.16667,114.5 -0.5,114.5C -0.5,80.5 -0.5,46.5 -0.5,12.5 Z"/></g>
<g><path style="opacity:0.928" fill="#a57c34" d="M 105.5,12.5 C 120.17,12.3334 134.837,12.5001 149.5,13C 178.58,17.4213 193.58,34.4213 194.5,64C 194.165,90.7156 181.165,107.382 155.5,114C 138.837,114.5 122.17,114.667 105.5,114.5C 105.5,80.5 105.5,46.5 105.5,12.5 Z M 121.5,26.5 C 131.172,26.3335 140.839,26.5002 150.5,27C 162.299,29.4635 170.466,36.2968 175,47.5C 179.588,62.3097 177.922,76.3097 170,89.5C 164.192,95.8215 157.025,99.6548 148.5,101C 139.506,101.5 130.506,101.666 121.5,101.5C 121.5,76.5 121.5,51.5 121.5,26.5 Z"/></g>
<g><path style="opacity:0.723" fill="#fefffe" d="M 349.5,79.5 C 351.833,79.5 354.167,79.5 356.5,79.5C 355.166,82.3552 353.166,84.8552 350.5,87C 352.81,87.4966 355.143,87.6633 357.5,87.5C 357.5,89.1667 357.5,90.8333 357.5,92.5C 353.167,92.5 348.833,92.5 344.5,92.5C 344.5,95.1667 344.5,97.8333 344.5,100.5C 348.167,100.5 351.833,100.5 355.5,100.5C 355.714,102.144 355.38,103.644 354.5,105C 351.183,105.498 347.85,105.665 344.5,105.5C 344.5,107.833 344.5,110.167 344.5,112.5C 348.833,112.5 353.167,112.5 357.5,112.5C 357.5,114.167 357.5,115.833 357.5,117.5C 351.167,117.5 344.833,117.5 338.5,117.5C 338.5,107.5 338.5,97.5 338.5,87.5C 340.604,87.7989 342.604,87.4656 344.5,86.5C 345.931,83.9613 347.597,81.6279 349.5,79.5 Z"/></g>
<g><path style="opacity:0.751" fill="#fefffe" d="M 261.5,87.5 C 268.292,87.1274 274.959,87.7941 281.5,89.5C 288.456,96.7222 289.29,104.722 284,113.5C 282.082,114.542 280.249,115.708 278.5,117C 272.843,117.499 267.176,117.666 261.5,117.5C 261.5,107.5 261.5,97.5 261.5,87.5 Z M 267.5,92.5 C 278.042,91.5394 282.542,96.2061 281,106.5C 278.09,111.863 273.59,113.863 267.5,112.5C 267.5,105.833 267.5,99.1667 267.5,92.5 Z"/></g>
<g><path style="opacity:0.739" fill="#fefffe" d="M 411.5,87.5 C 416.534,87.3362 421.534,87.6695 426.5,88.5C 432.209,90.9406 434.042,95.2739 432,101.5C 431.535,102.931 430.701,104.097 429.5,105C 425.637,106.354 421.637,106.854 417.5,106.5C 417.5,110.167 417.5,113.833 417.5,117.5C 415.5,117.5 413.5,117.5 411.5,117.5C 411.5,107.5 411.5,97.5 411.5,87.5 Z M 417.5,92.5 C 420.602,92.154 423.435,92.8207 426,94.5C 426.743,96.4406 426.576,98.2739 425.5,100C 423.091,101.707 420.425,102.54 417.5,102.5C 417.5,99.1667 417.5,95.8333 417.5,92.5 Z"/></g>
<g><path style="opacity:0.736" fill="#fefffe" d="M 491.5,87.5 C 493.792,87.2436 495.959,87.5769 498,88.5C 502.093,98.0054 505.593,107.672 508.5,117.5C 506.5,117.5 504.5,117.5 502.5,117.5C 501.833,114.833 501.167,112.167 500.5,109.5C 496.774,109.177 493.107,109.511 489.5,110.5C 488.127,112.49 487.127,114.657 486.5,117C 484.527,117.495 482.527,117.662 480.5,117.5C 483.77,107.358 487.436,97.3582 491.5,87.5 Z M 494.5,96.5 C 495.719,99.2908 497.052,102.124 498.5,105C 496.098,105.814 493.765,105.647 491.5,104.5C 492.809,101.917 493.809,99.2501 494.5,96.5 Z"/></g>
<g><path style="opacity:0.713" fill="#fefffe" d="M 558.5,87.5 C 564.245,87.2111 569.912,87.7111 575.5,89C 581.208,95.2526 580.542,100.753 573.5,105.5C 577.183,108.878 579.85,112.878 581.5,117.5C 579.076,117.808 576.743,117.474 574.5,116.5C 573,114.167 571.5,111.833 570,109.5C 568.736,107.393 566.903,106.393 564.5,106.5C 564.5,110.167 564.5,113.833 564.5,117.5C 562.5,117.5 560.5,117.5 558.5,117.5C 558.5,107.5 558.5,97.5 558.5,87.5 Z M 564.5,92.5 C 568.811,91.536 571.811,93.036 573.5,97C 571.443,100.121 568.443,101.621 564.5,101.5C 564.5,98.5 564.5,95.5 564.5,92.5 Z"/></g>
<g><path style="opacity:0.739" fill="#fefffe" d="M 630.5,87.5 C 638.5,87.5 646.5,87.5 654.5,87.5C 654.5,89.1667 654.5,90.8333 654.5,92.5C 651.5,92.5 648.5,92.5 645.5,92.5C 645.5,100.833 645.5,109.167 645.5,117.5C 643.5,117.5 641.5,117.5 639.5,117.5C 639.5,109.167 639.5,100.833 639.5,92.5C 636.482,92.6646 633.482,92.498 630.5,92C 629.272,90.5098 629.272,89.0098 630.5,87.5 Z"/></g>
</svg>
